<svg width="36" height="30" viewBox="0 0 36 30" fill="none" xmlns="http://www.w3.org/2000/svg">
<path d="M34.5 1.49995C33.0636 2.51316 31.4732 3.28811 29.79 3.79495C28.8866 2.75621 27.686 2.01998 26.3506 1.68584C25.0151 1.35169 23.6092 1.43574 22.3231 1.92663C21.037 2.41751 19.9327 3.29155 19.1595 4.43052C18.3863 5.56949 17.9815 6.91845 18 8.29495V9.79495C15.364 9.8633 12.7519 9.27867 10.3965 8.09312C8.04112 6.90757 6.01548 5.1579 4.5 2.99995C4.5 2.99995 -1.5 16.4999 12 22.4999C8.91079 24.5969 5.23074 25.6483 1.5 25.4999C15 32.9999 31.5 25.4999 31.5 8.24995C31.4986 7.83213 31.4584 7.41534 31.38 7.00495C32.9109 5.49519 33.9912 3.58902 34.5 1.49995V1.49995Z" stroke="white" stroke-width="2" stroke-linecap="round" stroke-linejoin="round"/>
</svg>
