<svg width="18" height="19" viewBox="0 0 18 19" fill="none" xmlns="http://www.w3.org/2000/svg">
<path d="M5 0.79248C2.239 0.79248 0 3.03148 0 5.79248V13.7925C0 16.5535 2.239 18.7925 5 18.7925H13C15.761 18.7925 18 16.5535 18 13.7925V5.79248C18 3.03148 15.761 0.79248 13 0.79248H5ZM15 2.79248C15.552 2.79248 16 3.24048 16 3.79248C16 4.34448 15.552 4.79248 15 4.79248C14.448 4.79248 14 4.34448 14 3.79248C14 3.24048 14.448 2.79248 15 2.79248ZM9 4.79248C11.761 4.79248 14 7.03148 14 9.79248C14 12.5535 11.761 14.7925 9 14.7925C6.239 14.7925 4 12.5535 4 9.79248C4 7.03148 6.239 4.79248 9 4.79248ZM9 6.79248C8.20435 6.79248 7.44129 7.10855 6.87868 7.67116C6.31607 8.23377 6 8.99683 6 9.79248C6 10.5881 6.31607 11.3512 6.87868 11.9138C7.44129 12.4764 8.20435 12.7925 9 12.7925C9.79565 12.7925 10.5587 12.4764 11.1213 11.9138C11.6839 11.3512 12 10.5881 12 9.79248C12 8.99683 11.6839 8.23377 11.1213 7.67116C10.5587 7.10855 9.79565 6.79248 9 6.79248Z" fill="white"/>
</svg>
