<svg width="20" height="21" viewBox="0 0 20 21" fill="none" xmlns="http://www.w3.org/2000/svg">
<path d="M15 0.695923C13.3735 0.695923 11.941 1.48957 11.0273 2.69592H2C0.895 2.69592 0 3.59092 0 4.69592V18.6959C0 18.8739 0.0312187 19.0426 0.0742188 19.2076L10.6504 8.63147C10.9219 9.29286 11.236 9.92063 11.543 10.5065C11.5504 10.5206 11.5551 10.5334 11.5625 10.5475L10.4141 11.6959L17.9258 19.2076C17.9688 19.0426 18 18.8739 18 18.6959V11.3561C18.1584 11.0191 18.3285 10.6765 18.5098 10.3229C19.2088 8.95788 20 7.40992 20 5.69592C20 2.93892 17.757 0.695923 15 0.695923ZM14.9727 2.72522C16.6297 2.72522 17.9727 4.06822 17.9727 5.72522C17.9717 8.22122 15.377 10.726 15.377 13.36C15.377 13.566 15.1767 13.7194 14.9707 13.7194C14.7647 13.7194 14.5957 13.5367 14.5957 13.3307C14.5957 10.6967 11.9727 8.45122 11.9727 5.72522C11.9727 4.06822 13.3157 2.72522 14.9727 2.72522ZM5.00195 4.69592C5.77995 4.69592 6.48748 4.99117 7.02148 5.47717L6.17773 6.32288C5.86073 6.05188 5.45095 5.88538 5.00195 5.88538C4.00195 5.88538 3.19141 6.69592 3.19141 7.69592C3.19141 8.69492 4.00195 9.50647 5.00195 9.50647C5.84095 9.50647 6.42177 9.00811 6.63477 8.31311H5.00195V7.16858L7.82812 7.17249C8.07413 8.34149 7.51995 10.6959 5.00195 10.6959C3.34395 10.6959 2 9.35292 2 7.69592C2 6.03892 3.34395 4.69592 5.00195 4.69592ZM15 4.69592C14.7348 4.69592 14.4804 4.80128 14.2929 4.98882C14.1054 5.17635 14 5.43071 14 5.69592C14 5.96114 14.1054 6.21549 14.2929 6.40303C14.4804 6.59057 14.7348 6.69592 15 6.69592C15.2652 6.69592 15.5196 6.59057 15.7071 6.40303C15.8946 6.21549 16 5.96114 16 5.69592C16 5.43071 15.8946 5.17635 15.7071 4.98882C15.5196 4.80128 15.2652 4.69592 15 4.69592ZM9 13.11L1.48828 20.6217C1.65328 20.6647 1.822 20.6959 2 20.6959H16C16.178 20.6959 16.3467 20.6647 16.5117 20.6217L9 13.11Z" fill="white"/>
</svg>
