<svg width="18" height="19" viewBox="0 0 18 19" fill="none" xmlns="http://www.w3.org/2000/svg">
<path d="M3.62 8.48592C5.06 11.3159 7.38 13.6259 10.21 15.0759L12.41 12.8759C12.68 12.6059 13.08 12.5159 13.43 12.6359C14.55 13.0059 15.76 13.2059 17 13.2059C17.55 13.2059 18 13.6559 18 14.2059V17.6959C18 18.2459 17.55 18.6959 17 18.6959C7.61 18.6959 0 11.0859 0 1.69592C0 1.14592 0.45 0.695923 1 0.695923H4.5C5.05 0.695923 5.5 1.14592 5.5 1.69592C5.5 2.94592 5.7 4.14592 6.07 5.26592C6.18 5.61592 6.1 6.00592 5.82 6.28592L3.62 8.48592Z" fill="white"/>
</svg>
