<svg width="20" height="17" viewBox="0 0 20 17" fill="none" xmlns="http://www.w3.org/2000/svg">
<path d="M20 0.791504C19.22 1.2545 17.655 1.8855 16.735 2.0675C16.708 2.0745 16.686 2.0835 16.66 2.0905C15.847 1.2885 14.733 0.791504 13.5 0.791504C11.015 0.791504 9 2.8065 9 5.2915C9 5.4225 8.989 5.6635 9 5.7915C5.647 5.7915 3.095 4.0355 1.265 1.7915C1.066 2.2915 0.979 3.0815 0.979 3.8235C0.979 5.2245 2.074 6.6005 3.779 7.4535C3.465 7.5345 3.119 7.5925 2.759 7.5925C2.178 7.5925 1.563 7.4395 1 6.9755C1 6.9925 1 7.0085 1 7.0265C1 8.9845 3.078 10.3175 4.926 10.6885C4.551 10.9095 3.795 10.9315 3.426 10.9315C3.166 10.9315 2.246 10.8125 2 10.7665C2.514 12.3715 4.368 13.2735 6.135 13.3055C4.753 14.3895 3.794 14.7915 0.964 14.7915H0C1.788 15.9375 4.065 16.7925 6.347 16.7925C13.777 16.7925 18 11.1295 18 5.7915C18 5.7055 17.998 5.5255 17.995 5.3445C17.995 5.3265 18 5.3095 18 5.2915C18 5.2645 17.992 5.2385 17.992 5.2115C17.989 5.0755 17.986 4.9485 17.983 4.8825C18.773 4.3125 19.458 3.6015 20 2.7915C19.275 3.1135 18.497 3.3295 17.68 3.4275C18.514 2.9275 19.699 1.7355 20 0.791504Z" fill="white"/>
</svg>
