<svg width="22" height="40" viewBox="0 0 22 40" fill="none" xmlns="http://www.w3.org/2000/svg">
<path d="M0.75 21.2498V14.75H6H6.75V14V9.398C6.75 6.52499 7.68024 4.38482 9.17552 2.96057C10.6768 1.53062 12.8239 0.749999 15.386 0.750001L15.3876 0.749997C16.9658 0.746548 18.5423 0.81553 20.112 0.956929V5.886H17.126C15.5748 5.886 14.4695 6.22165 13.8411 7.11133C13.5432 7.53313 13.4025 8.01545 13.3308 8.4921C13.2597 8.96501 13.25 9.483 13.25 10V14V14.75H14H20.2089L19.4632 21.2422L13.9998 21.244L13.25 21.2442V21.994V39.25H6.75V21.998V21.2477L5.99975 21.248L0.75 21.2498Z" fill="white" stroke="#2E4697" stroke-width="1.5"/>
</svg>
