<svg width="38" height="38" viewBox="0 0 38 38" fill="none" xmlns="http://www.w3.org/2000/svg">
<path d="M11 1C5.478 1 1 5.478 1 11V27C1 32.522 5.478 37 11 37H27C32.522 37 37 32.522 37 27V11C37 5.478 32.522 1 27 1H11ZM31 5C32.104 5 33 5.896 33 7C33 8.104 32.104 9 31 9C29.896 9 29 8.104 29 7C29 5.896 29.896 5 31 5ZM19 9C24.522 9 29 13.478 29 19C29 24.522 24.522 29 19 29C13.478 29 9 24.522 9 19C9 13.478 13.478 9 19 9ZM19 13C17.4087 13 15.8826 13.6321 14.7574 14.7574C13.6321 15.8826 13 17.4087 13 19C13 20.5913 13.6321 22.1174 14.7574 23.2426C15.8826 24.3679 17.4087 25 19 25C20.5913 25 22.1174 24.3679 23.2426 23.2426C24.3679 22.1174 25 20.5913 25 19C25 17.4087 24.3679 15.8826 23.2426 14.7574C22.1174 13.6321 20.5913 13 19 13Z" fill="white" stroke="#be34a5" stroke-width="1.5"/>
</svg>
