<svg width="36" height="36" viewBox="0 0 36 36" fill="none" xmlns="http://www.w3.org/2000/svg">
<path d="M6.70967 15.0497L6.32458 15.4348L6.57156 15.9201C9.52412 21.7227 14.2793 26.4564 20.078 29.4275L20.5641 29.6765L20.9503 29.2903L25.3503 24.8903C25.6885 24.5522 26.1885 24.4426 26.6168 24.5895L26.6167 24.5895L26.6247 24.5921C28.9405 25.3572 31.4399 25.77 34 25.77C34.6858 25.77 35.25 26.3342 35.25 27.02V34C35.25 34.6858 34.6858 35.25 34 35.25C15.6342 35.25 0.75 20.3658 0.75 2C0.75 1.31421 1.31421 0.75 2 0.75H9C9.68579 0.75 10.25 1.31421 10.25 2C10.25 4.57831 10.6623 7.05573 11.4259 9.36949C11.5638 9.81351 11.4622 10.2971 11.1097 10.6497L6.70967 15.0497Z" fill="white" stroke="#0ED33A" stroke-width="1.5"/>
</svg>
