<svg width="40" height="33" viewBox="0 0 40 33" fill="none" xmlns="http://www.w3.org/2000/svg">
<path d="M35.4791 7.26288C35.9979 7.20066 36.5095 7.11596 37.013 7.00945C36.5013 7.49948 35.9558 7.95423 35.3809 8.36905L34.9425 8.68537L34.967 9.22541C34.9723 9.34188 34.978 9.57874 34.9841 9.85302C34.9847 9.90862 34.9889 9.95584 34.9928 9.99015C34.9933 9.99434 34.9937 9.99848 34.9942 10.0026C34.9919 10.0307 34.99 10.0651 34.99 10.104V10.1123L34.9901 10.1206C34.9961 10.4815 35 10.8347 35 10.998C35 21.1679 26.9566 32 12.694 32C9.66263 32 6.61072 31.2013 3.86585 29.961C5.74681 29.882 7.20992 29.6717 8.47935 29.2807C10.1779 28.7576 11.4597 27.9325 12.8872 26.8128L15.1001 25.0771L12.2881 25.0262C9.68269 24.979 7.16217 23.9252 5.7931 22.1975C6.21172 22.2428 6.61424 22.278 6.852 22.278C7.23636 22.278 7.8435 22.2668 8.46416 22.1939C9.04869 22.1253 9.79341 21.9873 10.3597 21.6535L12.6121 20.3261L10.0488 19.8116C8.33933 19.4684 6.53502 18.6792 5.17955 17.5515C4.36957 16.8776 3.7475 16.1092 3.37911 15.2631C4.10108 15.505 4.82537 15.6 5.518 15.6C6.34358 15.6 7.1218 15.4673 7.80778 15.2903L10.3946 14.623L8.00542 13.4277C4.77017 11.8091 2.958 9.33145 2.958 7.062C2.958 6.39446 2.99512 5.73158 3.06712 5.13056C6.74469 9.04761 11.6862 11.998 18 11.998H19.0896L18.9963 10.9124C18.9855 10.7864 18.9896 10.6033 18.9942 10.3957C18.997 10.2697 19 10.1348 19 9.998C19 5.58029 22.5823 1.998 27 1.998C29.191 1.998 31.17 2.8798 32.6177 4.30791L33.0261 4.71074L33.58 4.56162C33.6333 4.54726 33.6812 4.53139 33.7026 4.5243L33.7075 4.52266C33.7086 4.52232 33.7096 4.52199 33.7105 4.52168C34.6961 4.32153 35.9894 3.89723 37.2403 3.40182C36.4391 4.25781 35.549 4.99076 34.8458 5.41233L35.4791 7.26288Z" fill="white" stroke="#2490DE" stroke-width="1.5"/>
</svg>
