<svg width="40" height="32" viewBox="0 0 40 32" fill="none" xmlns="http://www.w3.org/2000/svg">
<path d="M38.4395 4.56577L38.4396 4.56611C38.8323 6.03184 39.041 8.8534 39.1461 11.3871C39.1981 12.6373 39.224 13.7915 39.237 14.6334C39.2435 15.0542 39.2468 15.3966 39.2484 15.6335C39.2492 15.7519 39.2496 15.8439 39.2498 15.9061L39.25 15.9767L39.25 15.9944L39.25 15.9987V15.9998V16V16.0002V16.0013L39.25 16.0056L39.25 16.0233L39.2498 16.0939C39.2496 16.1561 39.2492 16.2481 39.2484 16.3665C39.2468 16.6034 39.2435 16.9458 39.237 17.3666C39.224 18.2085 39.1981 19.3627 39.1461 20.6129C39.041 23.1466 38.8323 25.9682 38.4396 27.4339L38.4395 27.4342C38.0487 28.8954 36.8969 30.0488 35.4344 30.4394L35.4339 30.4396C34.7318 30.6277 33.4325 30.7813 31.8153 30.8993C30.2192 31.0157 28.3753 31.0937 26.6217 31.1458C24.8694 31.1979 23.2134 31.224 21.9951 31.237C21.3861 31.2435 20.8868 31.2467 20.54 31.2484C20.3666 31.2492 20.2314 31.2496 20.1396 31.2498L20.0352 31.25L20.0087 31.25L20.0021 31.25H20.0005H20.0001L20 32L19.9999 31.25H19.9995H19.9979L19.9913 31.25L19.9648 31.25L19.8604 31.2498C19.7686 31.2496 19.6334 31.2492 19.46 31.2484C19.1132 31.2467 18.6139 31.2435 18.0049 31.237C16.7866 31.224 15.1306 31.1979 13.3783 31.1458C11.6247 31.0937 9.78077 31.0157 8.1847 30.8993C6.56755 30.7813 5.26817 30.6277 4.56611 30.4396L4.56577 30.4395C3.10487 30.0488 1.95124 28.8951 1.56054 27.4342L1.56044 27.4339C1.1677 25.9682 0.959048 23.1466 0.853854 20.6129C0.801948 19.3627 0.775967 18.2085 0.762973 17.3666C0.756479 16.9458 0.753235 16.6034 0.751615 16.3665C0.750805 16.2481 0.750401 16.1561 0.7502 16.0939L0.750025 16.0233L0.750003 16.0056L0.75 16.0013L0.75 16.0002L0.75 16L0.75 15.9998L0.75 15.9987L0.750003 15.9944L0.750025 15.9767L0.7502 15.9061C0.750401 15.8439 0.750805 15.7519 0.751615 15.6335C0.753235 15.3966 0.756479 15.0542 0.762973 14.6334C0.775967 13.7915 0.801948 12.6373 0.853854 11.3871C0.959048 8.8534 1.1677 6.03184 1.56044 4.56611L1.56054 4.56577C1.95124 3.10487 3.10487 1.95124 4.56577 1.56054L4.56611 1.56044C5.26817 1.37233 6.56755 1.21868 8.1847 1.1007C9.78077 0.984254 11.6247 0.906272 13.3783 0.854169C15.1306 0.802103 16.7866 0.776049 18.0049 0.76302C18.6139 0.756507 19.1132 0.753251 19.46 0.751625C19.6334 0.750811 19.7686 0.750405 19.8604 0.750202L19.9648 0.750025L19.9913 0.750003L19.9979 0.75L19.9995 0.75L19.9999 0.75L20 0L20.0001 0.75L20.0005 0.75L20.0021 0.75L20.0087 0.750003L20.0352 0.750025L20.1396 0.750202C20.2314 0.750405 20.3666 0.750811 20.54 0.751625C20.8868 0.753251 21.3861 0.756507 21.9951 0.76302C23.2134 0.776049 24.8694 0.802103 26.6217 0.854169C28.3753 0.906272 30.2192 0.984254 31.8153 1.1007C33.4325 1.21868 34.7318 1.37233 35.4339 1.56044L35.4342 1.56054C36.8951 1.95124 38.0488 3.10487 38.4395 4.56577ZM15.25 22.928V24.227L16.375 23.5775L28.375 16.6495L29.5 16L28.375 15.3505L16.375 8.42248L15.25 7.77298V9.072V22.928Z" fill="transparent" stroke="#f10002" stroke-width="1.5"/>
</svg>
